<?xml version="1.0" encoding="utf-8"?>
<!-- Generator: Adobe Illustrator 16.0.0, SVG Export Plug-In . SVG Version: 6.00 Build 0)  -->
<!DOCTYPE svg PUBLIC "-//W3C//DTD SVG 1.0//EN" "http://www.w3.org/TR/2001/REC-SVG-20010904/DTD/svg10.dtd">
<svg version="1.0" id="Warstwa_1" xmlns="http://www.w3.org/2000/svg" xmlns:xlink="http://www.w3.org/1999/xlink" x="0px" y="0px"
	 width="298px" height="121px" viewBox="0 0 298 121" style="enable-background:new 0 0 298 121;" xml:space="preserve">
<g>
	<g>
		<g>
			<g>
				<path style="fill:#231F20;" d="M105.407,100.367c-0.079-0.859-0.254-1.73-0.523-2.617c-0.268-0.883-0.706-1.549-1.309-1.992
					c-0.603-0.444-1.375-0.664-2.315-0.664c-1.074,0-1.959,0.274-2.656,0.824c-0.699,0.551-1.208,1.343-1.532,2.375
					c-0.321,1.035-0.536,2.063-0.642,3.081c-0.109,1.021-0.163,2.229-0.163,3.621v5.197c1.556,1.449,2.995,2.174,4.309,2.174
					c1.046,0,1.918-0.248,2.617-0.746c0.696-0.494,1.207-1.211,1.529-2.152c0.323-0.938,0.537-1.854,0.646-2.739
					c0.106-0.886,0.161-1.92,0.161-3.1C105.528,102.313,105.488,101.227,105.407,100.367z"/>
			</g>
		</g>
		<g>
			<g>
				<path style="fill:#231F20;" d="M128.893,96.1l-7.53,21.784c-0.059,0.166-0.119,0.324-0.176,0.482
					c0.875-1.152,1.914-2.633,2.889-4.314c2.297-3.967,3.891-8.165,4.821-12.585c0.566-2.406,0.801-4.491,0.895-6.108
					C129.297,95.568,128.995,95.813,128.893,96.1z"/>
			</g>
		</g>
		<g>
			<g>
				<path style="fill:#231F20;" d="M129.846,93.523c0.006-0.612-0.006-1.085-0.006-1.385c0-0.49,0-0.973,0-1.445
					c-0.281-11.557-3.668-21.625-10.192-30.201c-1.822-2.376-3.868-4.65-6.179-6.803c-10.9-10.192-24.104-15.3-39.545-15.3
					c-4.638,0-9.026,0.458-13.225,1.394c-1.418,0.274-2.815,0.631-4.152,1.057c-6.599,1.95-12.663,5.116-18.181,9.436
					c-0.757,0.688-1.795,1.649-3.108,2.885c-1.344,1.236-3.395,3.688-6.129,7.306c0,0.025,0,0.025-0.019,0.025
					c-2.452,3.244-4.707,3.244-6.803,0c-0.229-0.35-0.457-0.756-0.682-1.185c-2.783-9.613-2.982-16.766-0.585-21.506
					c0.074-0.12,0.152-0.241,0.254-0.369c0.638-1.166,1.44-2.153,2.41-2.987c0.623-0.554,1.338-1.038,2.12-1.446
					c1.236,0.082,2.478,0.177,3.688,0.279c4.172,0.255,8.072,0.384,11.658,0.384c1.242-0.026,2.478-0.052,3.692-0.078
					c1.313-0.026,2.589-0.076,3.797-0.153c1.313-0.102,2.573-0.204,3.815-0.331c1.345-0.178,2.658-0.357,3.893-0.53
					c1.439-0.272,2.784-0.552,4.078-0.833c1.541-0.401,2.956-0.86,4.24-1.338c0.084-0.025,0.18-0.076,0.281-0.102
					c4.23-1.668,7.103-3.975,8.675-6.88c-1.291-1.115-2.706-2.052-4.241-2.835l-2.586,6.122c-0.019,0.127-0.126,0.204-0.249,0.282
					c-0.128,0.024-0.254,0.024-0.388-0.051c-0.121-0.026-0.224-0.104-0.244-0.23c-0.082-0.126-0.082-0.28,0-0.408l2.606-6.089
					c-0.738-0.357-1.503-0.663-2.249-0.911c-0.032,0-0.059,0-0.059,0.026l-3.719,8.72c-0.024,0.126-0.095,0.203-0.222,0.229
					c-0.128,0.076-0.254,0.076-0.384,0c-0.125-0.027-0.228-0.103-0.252-0.229c-0.078-0.121-0.078-0.242,0-0.376l3.693-8.669
					c-0.79-0.229-1.617-0.408-2.458-0.536l-4.446,10.549c-0.026,0.127-0.13,0.204-0.256,0.273c-0.126,0.032-0.254,0.032-0.382-0.051
					c-0.121-0.019-0.223-0.095-0.248-0.223c-0.071-0.128-0.071-0.255,0-0.382l4.375-10.294c-0.835-0.128-1.669-0.229-2.535-0.306
					c0,0.077-0.018,0.128-0.051,0.204l-4.897,11.408c-0.077,0.123-0.154,0.198-0.25,0.282c-0.126,0.019-0.26,0.019-0.383-0.059
					c-0.128-0.076-0.229-0.151-0.254-0.223c-0.05-0.125-0.05-0.279,0-0.407l4.881-11.256c-0.905-0.025-1.822-0.025-2.703,0
					l-5.158,12.091c-0.024,0.076-0.056,0.152-0.127,0.229c-0.027,0.026-0.077,0.026-0.101,0.05c-0.126,0.026-0.257,0.026-0.384-0.05
					c-0.127-0.025-0.229-0.103-0.254-0.229c-0.07-0.128-0.07-0.282,0-0.409l4.955-11.632c-0.879,0.026-1.788,0.102-2.726,0.204
					L46.84,30.197c-0.027,0.026-0.027,0.078-0.027,0.103c-0.051,0.077-0.127,0.153-0.205,0.204
					c-0.127,0.026-0.279,0.026-0.407-0.051c-0.075-0.026-0.146-0.076-0.178-0.153c-0.02-0.025-0.02-0.077-0.052-0.103
					c-0.067-0.126-0.067-0.254,0-0.375l4.913-11.46c-0.936,0.102-1.899,0.229-2.886,0.408l-4.853,11.427
					c-0.027,0.026-0.027,0.078-0.027,0.103c-0.051,0.077-0.127,0.153-0.229,0.204c-0.121,0.026-0.253,0.026-0.383-0.051
					c-0.093-0.026-0.176-0.076-0.197-0.153c-0.02-0.025-0.02-0.077-0.05-0.103c-0.052-0.126-0.052-0.254,0-0.375l4.63-10.823
					c-0.943,0.172-1.896,0.35-2.886,0.573l-4.425,10.447c-0.025,0.127-0.128,0.204-0.257,0.229c-0.049,0.026-0.1,0.051-0.152,0.051
					H39.15c-0.076,0-0.127-0.025-0.204-0.051c-0.121-0.026-0.205-0.102-0.223-0.229c-0.076-0.128-0.076-0.254,0-0.377l4.116-9.79
					c-0.982,0.279-1.995,0.561-3.034,0.834l-4.121,9.562c-0.02,0.026-0.02,0.026-0.02,0.051c-0.083,0.126-0.159,0.204-0.238,0.254
					c-0.118,0.025-0.248,0.025-0.375-0.051c-0.126-0.051-0.178-0.127-0.204-0.204c-0.024-0.025-0.024-0.025-0.024-0.051
					c-0.078-0.127-0.078-0.255,0-0.383l3.84-8.847c-1.038,0.273-2.044,0.605-3.083,0.961l-3.562,8.217
					c-0.031,0.026-0.031,0.078-0.05,0.103c-0.052,0.077-0.108,0.153-0.18,0.204c-0.126,0.026-0.279,0.026-0.405-0.051
					c-0.079-0.051-0.153-0.103-0.178-0.153c-0.027-0.025-0.027-0.077-0.052-0.103c-0.077-0.126-0.077-0.254,0-0.375l3.209-7.415
					c-1.032,0.331-2.095,0.681-3.158,1.115l-2.555,5.917c-0.07,0.128-0.148,0.223-0.223,0.275c-0.128,0.031-0.28,0.031-0.407-0.052
					c-0.13-0.044-0.207-0.121-0.231-0.223c-0.075-0.121-0.075-0.256,0-0.382l2.206-5.102c-0.079,0.025-0.179,0.077-0.281,0.102
					c-0.355-1.07-0.733-2.078-1.108-3.039l-2.739,6.396c-0.027,0.128-0.12,0.229-0.25,0.286c-0.133,0.02-0.253,0.02-0.376-0.031
					c-0.127-0.025-0.228-0.126-0.254-0.255c-0.049-0.12-0.049-0.249,0-0.375l3.137-7.313c-0.46-1.083-0.887-2.146-1.294-3.133
					l-3.333,7.688c-0.05,0.126-0.133,0.23-0.229,0.306c-0.127,0.018-0.254,0.018-0.38-0.058c-0.129-0.07-0.232-0.146-0.256-0.248
					c-0.076-0.121-0.076-0.248,0-0.375l3.669-8.523c-0.478-0.994-0.955-1.95-1.44-2.879l-3.669,8.619
					c-0.024,0.126-0.103,0.197-0.229,0.229c-0.128,0.07-0.281,0.07-0.401,0c-0.133-0.031-0.199-0.102-0.235-0.229
					c-0.071-0.128-0.071-0.255,0-0.377l3.949-9.313c-0.529-0.93-1.033-1.797-1.542-2.574l-3.695,8.644
					c-0.078,0.12-0.145,0.222-0.248,0.3c-0.128,0.024-0.249,0-0.382-0.051c-0.121-0.07-0.223-0.147-0.248-0.249
					c-0.052-0.121-0.052-0.254,0-0.375L22.11,7.89c-0.535-0.802-1.096-1.567-1.681-2.268l-3.34,7.784
					c-0.018,0.128-0.095,0.23-0.222,0.305c-0.128,0.026-0.248,0.026-0.377-0.051c-0.125-0.024-0.228-0.126-0.252-0.254
					c-0.078-0.127-0.078-0.255,0-0.382l3.516-8.216c-0.612-0.683-1.236-1.288-1.874-1.822L15.427,8.8
					c-0.025,0.127-0.119,0.204-0.252,0.28c-0.123,0.026-0.25,0.026-0.377-0.051C14.67,9.004,14.594,8.927,14.569,8.8
					c-0.078-0.12-0.078-0.249,0-0.375l2.521-6.021c-1.433-1.166-2.904-1.923-4.445-2.299c-0.682,3.21-0.376,7.179,0.859,11.911
					c0.427,1.592,0.938,3.262,1.548,5.008c0.496,1.439,1.084,2.955,1.772,4.522c0.854,2.127,1.859,4.35,3.031,6.676
					c-0.101,0.102-0.179,0.204-0.254,0.306c-0.485,0.586-0.957,1.186-1.415,1.771c-1.115,1.388-2.153,2.752-3.135,4.147
					c-0.739,0.987-1.444,1.995-2.076,2.987c-0.102,0.127-0.204,0.249-0.305,0.369C7.636,45.37,4.121,52.932,2.127,60.493
					c-2.681,10.089-2.657,20.155,0.044,30.201c0.585,2.146,1.272,4.275,2.103,6.39c0.482,1.269,0.986,2.483,1.514,3.669
					c1.644,3.701,3.543,7.057,5.645,10.071c2.751,3.912,5.86,7.281,9.375,10.072h90.739c-0.029-0.18-0.05-0.365-0.05-0.559
					c0-0.777,0.201-1.381,0.603-1.809c0.403-0.432,0.914-0.645,1.532-0.645c0.537,0,1.046,0.16,1.53,0.482
					c-0.349,0.482-0.523,0.979-0.523,1.488c0,0.416,0.129,0.762,0.381,1.041h2.247c0.156-0.133,0.307-0.287,0.452-0.477
					c0.469-0.617,0.932-1.637,1.39-3.061l1.046-3.262l-7.125-17.392c-0.377-0.94-1.41-1.557-3.1-1.852l0.121-1.329h9.461
					l-0.123,1.287c-1.125,0.136-1.987,0.458-2.575,0.967l5.032,13.206l4.309-13.206c-0.619-0.455-1.479-0.777-2.578-0.967
					l0.121-1.287H129.846z M84.285,84.987c1.53,0,2.295,0.831,2.295,2.496c0,1.691-0.766,2.538-2.295,2.538
					c-1.503,0-2.254-0.847-2.254-2.538C82.031,85.818,82.782,84.987,84.285,84.987z M77.515,113.895h-9.543l0.121-1.488
					c1.073-0.162,2.026-0.549,2.859-1.17V99.643c0-2.872-1.234-4.307-3.704-4.307c-0.995,0-1.947,0.336-2.859,1.006
					c-0.913,0.67-1.585,1.543-2.014,2.617v12.278c0.726,0.537,1.731,0.928,3.021,1.17l-0.163,1.488h-9.582l0.163-1.568
					c1.151-0.189,2.105-0.553,2.858-1.09V98.838c0-1.074-0.224-1.806-0.666-2.194c-0.443-0.39-1.227-0.61-2.355-0.665l0.12-1.288
					c0.591-0.106,2.362-0.592,5.315-1.448l0.766,0.4l0.401,2.699c1.502-2.067,3.409-3.1,5.717-3.1c2.096,0,3.731,0.529,4.912,1.588
					c1.182,1.063,1.772,2.531,1.772,4.408v11.999c0.671,0.514,1.678,0.9,3.02,1.17L77.515,113.895z M89.237,113.895h-9.581
					l0.162-1.568c1.153-0.189,2.104-0.553,2.858-1.09v-12.48c0-1.073-0.223-1.804-0.666-2.194c-0.441-0.387-1.227-0.609-2.354-0.664
					l0.12-1.287c1.102-0.188,3.021-0.687,5.759-1.49l0.845,0.441v17.674c0.725,0.537,1.73,0.928,3.021,1.17L89.237,113.895z
					 M107.137,111.278c-1.557,1.961-3.796,2.939-6.722,2.939c-1.799,0-3.437-0.711-4.912-2.133
					c-0.404,0.592-0.699,1.193-0.886,1.811h-2.053V89.816c0-0.909-0.235-1.547-0.706-1.909c-0.47-0.363-1.242-0.569-2.316-0.624
					l0.121-1.289c1.1-0.188,3.02-0.685,5.758-1.49l0.845,0.443V96.26c1.156-2.011,2.819-3.018,4.993-3.018
					c2.844,0,4.925,0.924,6.241,2.777c1.314,1.854,1.973,4.387,1.973,7.609C109.474,106.769,108.695,109.319,107.137,111.278z"/>
			</g>
		</g>
	</g>
	<g>
		<path style="fill:#231F20;" d="M134.179,120.1l0.611-4.527c4.207-0.525,7.5-1.582,9.876-3.166V51.299
			c-2.443-1.509-5.939-2.563-10.488-3.168l0.51-4.526h18.128l36.561,56.466V51.299c-2.445-1.509-5.941-2.563-10.49-3.168l0.51-4.526
			h27.498l-0.613,4.526c-4.209,0.527-7.502,1.584-9.877,3.168V120.1h-6.617l-38.092-58.844v51.151
			c2.444,1.508,5.94,2.566,10.489,3.166l-0.508,4.527H134.179z"/>
		<path style="fill:#231F20;" d="M210.56,120.1l0.611-4.527c4.209-0.525,7.504-1.582,9.879-3.166V51.299
			c-2.445-1.509-5.939-2.563-10.49-3.168l0.51-4.526h30.146l-0.611,4.526c-4.211,0.527-7.502,1.584-9.881,3.168v61.107
			c2.445,1.508,5.943,2.566,10.492,3.166l-0.51,4.527H210.56z"/>
		<path style="fill:#231F20;" d="M292.776,100.523l5.092,2.037c-1.084,3.246-2.545,6.093-4.379,8.543
			c-1.832,2.453-3.629,4.283-5.398,5.488c-1.764,1.207-3.682,2.152-5.754,2.83s-3.648,1.092-4.736,1.246
			c-1.088,0.148-2.104,0.225-3.057,0.225c-10.793,0-18.686-3.131-23.678-9.393c-4.99-6.262-7.486-16.07-7.486-29.422
			c0-26.101,10.389-39.153,31.164-39.153c3.6,0,6.994,0.492,10.186,1.471c3.191,0.981,5.959,2.716,8.301,5.206
			c2.342,2.489,3.512,5.544,3.512,9.168c0,2.714-0.623,4.977-1.881,6.788c-1.256,1.812-2.734,2.716-4.432,2.716
			c-1.494,0-2.834-0.434-4.023-1.301c-1.191-0.867-1.951-2.02-2.287-3.451c1.355-2.187,2.035-4.224,2.035-6.112
			c0-2.716-1.037-4.77-3.109-6.168c-2.072-1.394-4.801-2.092-8.197-2.092c-7.266,0-12.494,2.585-15.682,7.75
			c-3.195,5.17-4.789,13.563-4.789,25.179c0,11.619,1.561,19.955,4.684,25.009c3.127,5.056,8.352,7.582,15.684,7.582
			c1.156,0,2.359-0.133,3.617-0.396c1.254-0.262,2.887-0.809,4.889-1.641c2.004-0.83,3.873-2.281,5.604-4.354
			C290.384,106.201,291.757,103.619,292.776,100.523z"/>
	</g>
</g>
<g>
</g>
<g>
</g>
<g>
</g>
<g>
</g>
<g>
</g>
<g>
</g>
</svg>
